# Blender v2.76 (sub 0) OBJ File: ''
# www.blender.org
v 0.000000 -0.000000 2.000000
v 0.000000 1.000000 2.000000
v 0.000000 1.000000 1.000000
v 0.000000 -0.000000 1.000000
v 1.000000 -0.000000 1.000000
v 1.000000 1.000000 1.000000
v 0.000000 2.000000 1.000000
v 0.000000 2.000000 0.000000
v 0.000000 1.000000 0.000000
v 1.000000 1.000000 0.000000
v -1.000000 1.000000 2.000000
v -1.000000 1.000000 1.000000
v 0.000000 1.000000 3.000000
v 0.000000 2.000000 3.000000
v 0.000000 2.000000 2.000000
v 1.000000 1.000000 2.000000
v 1.000000 -0.000000 2.000000
v -1.000000 2.000000 2.000000
v 1.000000 1.000000 3.000000
v 1.000000 2.000000 0.000000
v 1.000000 2.000000 1.000000
v 0.000000 3.000000 2.000000
v 0.000000 3.000000 1.000000
v 1.000000 3.000000 1.000000
v -1.000000 2.000000 1.000000
v 1.000000 2.000000 2.000000
v 1.000000 2.000000 3.000000
v 1.000000 3.000000 2.000000
v 2.000000 1.000000 1.000000
v 2.000000 2.000000 1.000000
v 2.000000 1.000000 2.000000
v 2.000000 2.000000 2.000000
vn -1.000000 0.000000 0.000000
vn 0.000000 0.000000 -1.000000
vn 0.000000 -1.000000 0.000000
vn 0.000000 0.000000 1.000000
vn 0.000000 1.000000 0.000000
vn 1.000000 0.000000 0.000000
s off
f 2//1 3//1 4//1
f 4//2 3//2 6//2
f 7//1 8//1 9//1
f 3//3 9//3 10//3
f 11//3 12//3 3//3
f 14//1 15//1 2//1
f 2//4 1//4 17//4
f 18//4 11//4 2//4
f 13//3 2//3 16//3
f 8//5 7//5 21//5
f 22//1 23//1 7//1
f 7//2 23//2 24//2
f 12//2 25//2 7//2
f 15//5 14//5 27//5
f 25//5 18//5 15//5
f 22//4 15//4 26//4
f 17//6 5//6 6//6
f 6//6 10//6 20//6
f 6//2 21//2 30//2
f 16//3 6//3 29//3
f 19//6 16//6 26//6
f 21//5 26//5 32//5
f 26//6 21//6 24//6
f 26//4 16//4 31//4
f 1//1 2//1 4//1
f 5//2 4//2 6//2
f 3//1 7//1 9//1
f 6//3 3//3 10//3
f 2//3 11//3 3//3
f 13//1 14//1 2//1
f 16//4 2//4 17//4
f 15//4 18//4 2//4
f 19//3 13//3 16//3
f 20//5 8//5 21//5
f 15//1 22//1 7//1
f 21//2 7//2 24//2
f 3//2 12//2 7//2
f 26//5 15//5 27//5
f 7//5 25//5 15//5
f 28//4 22//4 26//4
f 16//6 17//6 6//6
f 21//6 6//6 20//6
f 29//2 6//2 30//2
f 31//3 16//3 29//3
f 27//6 19//6 26//6
f 30//5 21//5 32//5
f 28//6 26//6 24//6
f 32//4 26//4 31//4
